# xmcd CD database file
# Copyright (C) 1996 Ti Kan
#
# Track frame offsets:
#  150
#  10135
#  21018
#  42268
#  55148
#  61663
#  75533
#  88215
#  99618
#  111910
#  123325
#  138798
#  151133
#  165018
#  185513
#  197133
#  207320
#
# Disc length: 2912 seconds
#
# Revision: 1
# Processed by: cddbd v1.4b41PL1 Copyright (c) Steve Scherf et al.
# Submitted via: CDWizzard Release:4.13
#
DISCID=d10b5e11
DTITLE=Various Artist - Legends Of Guitar - Country Vol. 1
DYEAR=1900
DGENRE=
TTITLE0=Hurricane
TTITLE1=Night Rider, The
TTITLE2=El Paso
TTITLE3=Oklahoma Stomp
TTITLE4=Cannon Ball Stomp
TTITLE5=Lost Weekend
TTITLE6=Cheesy Breeze
TTITLE7=Galloping On The Guitar
TTITLE8=Twin Guitar Special
TTITLE9=Honey Fingers
TTITLE10=Guitar Boogie
TTITLE11=Sugarfoot Rag
TTITLE12=Tennessee
TTITLE13=I Think I'll Just Stay Here And Drink
TTITLE14=Slowly
TTITLE15=Windy And Warm
TTITLE16=Nashville West
EXTD=
EXTT0=Collins, Larry and Maphis, Joe
EXTT1=Bryant, Jimmy
EXTT2=Robbins, Marty
EXTT3=Spade Cooley and His Orchestra
EXTT4=Travis,Merle
EXTT5=Lanham, Roy
EXTT6=Milton Brown and His Musical Brownies
EXTT7=Atkins, Chet
EXTT8=Wills, Bob and His Texas Playboys
EXTT9=Texas Troubadours
EXTT10=Garland, Hank
EXTT11=
EXTT12=Perkins, Carl      
EXTT13=Haggard, Merle
EXTT14=Pierce, Webb
EXTT15=Watson, Doc
EXTT16=Byrds, The
PLAYORDER=
